<svg width="199.22mm" height="206.32mm" version="1.1" viewBox="0 0 199.22 206.32" xmlns="http://www.w3.org/2000/svg">
  <g transform="translate(-6.476 -49.33)">
    <a transform="rotate(-38.964 122.2 118.74)">
      <g transform="rotate(-4.6276 200.37 238.08)">
        <g transform="translate(-.75595 -24.946)">
          <path transform="matrix(.19163 .18243 -.18243 .19163 126.2 -32.49)" d="m140.53 186.59a501.43 205.71 46.408 0 0-85.314 26.568 501.43 205.71 46.408 0 0 196.75 505.01 501.43 205.71 46.408 0 0 494.74 221.33 501.43 205.71 46.408 0 0-196.75-505.01 501.43 205.71 46.408 0 0-409.42-247.9zm9.8828 23.291a475.71 182.86 46.408 0 1 382.98 240.37 475.71 182.86 46.408 0 1 195.57 470.63 475.71 182.86 46.408 0 1-460.45-218.46 475.71 182.86 46.408 0 1-195.57-470.63 475.71 182.86 46.408 0 1 77.467-21.902z" fill="currentColor" stroke-width="4.5354"/>
        </g>
      </g>
      <g transform="matrix(-.12956 -.99157 -.99157 .12956 250.96 212.34)">
        <path transform="matrix(-.19163 -.18243 -.18243 .19163 279.87 113.81)" d="m661.38 186.59a205.71 501.43 43.592 0 0-409.42 247.9 205.71 501.43 43.592 0 0-196.75 505.01 205.71 501.43 43.592 0 0 494.74-221.33 205.71 501.43 43.592 0 0 196.75-505.01 205.71 501.43 43.592 0 0-85.314-26.568zm-9.8828 23.291a182.86 475.71 43.592 0 1 77.467 21.902 182.86 475.71 43.592 0 1-195.57 470.63 182.86 475.71 43.592 0 1-460.45 218.46 182.86 475.71 43.592 0 1 195.57-470.63 182.86 475.71 43.592 0 1 382.98-240.37z" fill="currentColor" stroke-width="4.5354"/>
        <path d="m111.9 136.39a19.667 20.312 43.592 0 1 0.23815 28.272 19.667 20.312 43.592 0 1-28.25 1.1514 19.667 20.312 43.592 0 1-0.23814-28.272 19.667 20.312 43.592 0 1 28.25-1.1514zm-3.8553 4.0497a14.253 14.721 43.592 0 0-20.474 0.83412 14.253 14.721 43.592 0 0 0.17257 20.49 14.253 14.721 43.592 0 0 20.474-0.83485 14.253 14.721 43.592 0 0-0.17255-20.49z" fill="currentColor"/>
      </g>
    </a>
  </g>
</svg>