<?xml version="1.0" encoding="UTF-8" standalone="no"?>
<svg
   xmlns:osb="http://www.openswatchbook.org/uri/2009/osb"
   xmlns:dc="http://purl.org/dc/elements/1.1/"
   xmlns:cc="http://creativecommons.org/ns#"
   xmlns:rdf="http://www.w3.org/1999/02/22-rdf-syntax-ns#"
   xmlns:svg="http://www.w3.org/2000/svg"
   xmlns="http://www.w3.org/2000/svg"
   xmlns:xlink="http://www.w3.org/1999/xlink"
   xmlns:sodipodi="http://sodipodi.sourceforge.net/DTD/sodipodi-0.dtd"
   xmlns:inkscape="http://www.inkscape.org/namespaces/inkscape"
   width="291.04166mm"
   height="291.04166mm"
   version="1.1"
   viewBox="0 0 291.04166 291.04165"
   id="svg18"
   sodipodi:docname="atom-2.svg"
   inkscape:export-filename="C:\Users\EPMA_Castaing\WebstormProjects\thermo-reimager-app\assets\svg\atom-2.png"
   inkscape:export-xdpi="95.972626"
   inkscape:export-ydpi="95.972626"
   inkscape:version="0.92.4 (5da689c313, 2019-01-14)">
  <metadata
     id="metadata24">
    <rdf:RDF>
      <cc:Work
         rdf:about="">
        <dc:format>image/svg+xml</dc:format>
        <dc:type
           rdf:resource="http://purl.org/dc/dcmitype/StillImage" />
      </cc:Work>
    </rdf:RDF>
  </metadata>
  <defs
     id="defs22">
    <linearGradient
       id="linearGradient2353"
       osb:paint="solid">
      <stop
         style="stop-color:#ffffff;stop-opacity:1;"
         offset="0"
         id="stop2351" />
    </linearGradient>
    <linearGradient
       id="linearGradient2317"
       osb:paint="solid">
      <stop
         style="stop-color:#000000;stop-opacity:1;"
         offset="0"
         id="stop2315" />
    </linearGradient>
    <linearGradient
       inkscape:collect="always"
       xlink:href="#linearGradient2353"
       id="linearGradient2355"
       x1="5.8718576"
       y1="152.48947"
       x2="206.29457"
       y2="152.48947"
       gradientUnits="userSpaceOnUse" />
  </defs>
  <sodipodi:namedview
     pagecolor="#ffffff"
     bordercolor="#666666"
     borderopacity="1"
     objecttolerance="10"
     gridtolerance="10"
     guidetolerance="10"
     inkscape:pageopacity="0"
     inkscape:pageshadow="2"
     inkscape:window-width="1920"
     inkscape:window-height="1057"
     id="namedview20"
     showgrid="false"
     inkscape:zoom="0.6052895"
     inkscape:cx="451.18241"
     inkscape:cy="582.46506"
     inkscape:window-x="-8"
     inkscape:window-y="-8"
     inkscape:window-maximized="1"
     inkscape:current-layer="g16"
     inkscape:snap-object-midpoints="true" />
  <g
     transform="translate(35.983475,-6.9675446)"
     id="g16"
     style="stroke:url(#linearGradient2355);paint-order:stroke fill markers"
     inkscape:export-xdpi="96"
     inkscape:export-ydpi="96">
    <circle
       style="fill:#202021;fill-opacity:1;fill-rule:evenodd;stroke:none;stroke-width:12.40821743;stroke-miterlimit:4;stroke-dasharray:none;stroke-opacity:1;paint-order:stroke fill markers"
       id="path2410"
       cx="109.53735"
       cy="152.48837"
       r="145.52083" />
  </g>
  <g
     inkscape:groupmode="layer"
     id="layer2"
     inkscape:label="white 1"
     transform="translate(39.763183,39.765203)" />
  <g
     inkscape:groupmode="layer"
     id="layer1"
     inkscape:label="white"
     transform="translate(42.459475,42.362455)">
    <a
       transform="matrix(0.80413273,-0.62856155,0.65033771,0.77720682,-55.760011,53.949261)"
       id="a14"
       style="stroke:none;stroke-width:5.29166651;stroke-miterlimit:4;stroke-dasharray:none;paint-order:stroke fill markers"
       inkscape:export-xdpi="96.070435"
       inkscape:export-ydpi="96.070435">
      <g
         transform="rotate(-4.6276,200.37,238.08)"
         id="g6"
         style="stroke:none;stroke-width:5.29166651;stroke-miterlimit:4;stroke-dasharray:none;paint-order:stroke fill markers">
        <g
           transform="translate(-0.75595,-24.946)"
           id="g4"
           style="stroke:none;stroke-width:5.29166651;stroke-miterlimit:4;stroke-dasharray:none;paint-order:stroke fill markers">
          <path
             transform="matrix(0.19163,0.18243,-0.18243,0.19163,126.2,-32.49)"
             d="m 140.53,186.59 a 501.43,205.71 46.408 0 0 -85.314,26.568 501.43,205.71 46.408 0 0 196.75,505.01 501.43,205.71 46.408 0 0 494.74,221.33 501.43,205.71 46.408 0 0 -196.75,-505.01 501.43,205.71 46.408 0 0 -409.42,-247.9 z m 9.8828,23.291 a 475.71,182.86 46.408 0 1 382.98,240.37 475.71,182.86 46.408 0 1 195.57,470.63 475.71,182.86 46.408 0 1 -460.45,-218.46 475.71,182.86 46.408 0 1 -195.57,-470.63 475.71,182.86 46.408 0 1 77.467,-21.902 z"
             id="path2"
             style="fill:#edffff;fill-opacity:1;stroke:none;stroke-width:20.00022507;stroke-miterlimit:4;stroke-dasharray:none;paint-order:stroke fill markers"
             inkscape:connector-curvature="0" />
        </g>
      </g>
      <g
         transform="matrix(-0.12956,-0.99157,-0.99157,0.12956,250.96,212.34)"
         id="g12"
         style="stroke:none;stroke-width:5.29167509;stroke-miterlimit:4;stroke-dasharray:none;paint-order:stroke fill markers">
        <path
           transform="matrix(-0.19163,-0.18243,-0.18243,0.19163,279.87,113.81)"
           d="M 661.38,186.59 A 205.71,501.43 43.592 0 0 251.96,434.49 205.71,501.43 43.592 0 0 55.21,939.5 205.71,501.43 43.592 0 0 549.95,718.17 205.71,501.43 43.592 0 0 746.7,213.16 205.71,501.43 43.592 0 0 661.386,186.592 Z m -9.8828,23.291 a 182.86,475.71 43.592 0 1 77.467,21.902 182.86,475.71 43.592 0 1 -195.57,470.63 182.86,475.71 43.592 0 1 -460.45,218.46 182.86,475.71 43.592 0 1 195.57,-470.63 182.86,475.71 43.592 0 1 382.98,-240.37 z"
           id="path8"
           style="fill:#ffffff;fill-opacity:1;stroke:none;stroke-width:20.00025749;stroke-miterlimit:4;stroke-dasharray:none;paint-order:stroke fill markers"
           inkscape:connector-curvature="0" />
        <path
           d="m 111.9,136.39 a 19.667,20.312 43.592 0 1 0.23815,28.272 19.667,20.312 43.592 0 1 -28.25,1.1514 19.667,20.312 43.592 0 1 -0.23814,-28.272 19.667,20.312 43.592 0 1 28.25,-1.1514 z m -3.8553,4.0497 a 14.253,14.721 43.592 0 0 -20.474,0.83412 14.253,14.721 43.592 0 0 0.17257,20.49 14.253,14.721 43.592 0 0 20.474,-0.83485 14.253,14.721 43.592 0 0 -0.17255,-20.49 z"
           id="path10"
           style="fill:#ffffff;fill-opacity:1;stroke:none;stroke-width:5.29167509;stroke-miterlimit:4;stroke-dasharray:none;paint-order:stroke fill markers"
           inkscape:connector-curvature="0" />
      </g>
    </a>
  </g>
</svg>
